<?xml version="1.0" standalone="no"?>
<!DOCTYPE svg PUBLIC "-//W3C//DTD SVG 20010904//EN"
 "http://www.w3.org/TR/2001/REC-SVG-20010904/DTD/svg10.dtd">
<svg version="1.0" xmlns="http://www.w3.org/2000/svg"
 width="600" height="700" viewBox="0 0 700.000000 900.000000"
 preserveAspectRatio="xMidYMid meet">

<g transform="translate(0.000000,943.000000) scale(0.100000,-0.100000)"
fill="#000000" stroke="none">
<path d="M4641 9389 c-64 -23 -115 -33 -205 -40 -141 -11 -199 -22 -281 -56
-74 -31 -177 -30 -240 3 -87 45 -146 59 -255 58 -75 0 -117 -5 -147 -17 -104
-41 -131 -48 -242 -61 -65 -8 -129 -19 -142 -26 -36 -19 -99 -70 -99 -81 0 -5
-11 -26 -24 -47 -12 -20 -26 -48 -30 -62 -4 -14 -17 -55 -28 -92 -33 -105 -8
-135 136 -165 72 -15 125 -37 138 -57 16 -23 7 -97 -23 -192 -16 -55 -45 -148
-63 -209 -39 -133 -49 -153 -82 -161 -39 -10 -114 16 -156 54 -52 47 -52 96
-3 189 69 131 43 178 -155 276 -123 61 -125 62 -128 98 -3 39 8 61 92 174 70
96 99 161 93 212 -5 51 -18 68 -71 96 -31 16 -65 22 -137 25 -191 8 -260 -22
-423 -189 -140 -142 -156 -173 -164 -332 -7 -152 29 -284 116 -417 53 -82 292
-278 455 -373 18 -11 41 -27 53 -38 11 -10 24 -19 28 -19 4 0 20 -8 34 -19 15
-10 59 -35 97 -56 127 -68 164 -101 202 -181 24 -51 38 -100 48 -170 15 -109
21 -129 71 -254 48 -122 69 -199 92 -335 38 -220 57 -509 39 -563 -5 -12 -22
-29 -38 -38 -28 -14 -33 -14 -55 1 -29 19 -57 79 -85 183 -23 87 -57 158 -92
190 -13 13 -56 34 -94 47 -109 38 -199 101 -363 252 -56 52 -214 163 -232 163
-6 0 -22 8 -36 18 -15 10 -42 24 -59 31 -43 17 -99 80 -125 139 -18 42 -19 60
-14 167 4 66 9 181 12 255 l6 135 -43 84 c-24 46 -57 94 -72 105 l-29 21 -39
-44 c-45 -50 -104 -167 -115 -226 -10 -57 -64 -232 -112 -361 -51 -140 -58
-189 -38 -276 17 -72 47 -129 102 -190 53 -59 67 -143 39 -223 -23 -64 -19
-98 18 -143 17 -22 41 -46 53 -53 37 -24 185 -161 258 -239 179 -190 230 -221
390 -230 154 -10 151 -2 161 -400 8 -308 17 -366 67 -465 22 -44 54 -99 72
-123 l30 -44 7 -181 c4 -100 12 -198 18 -217 6 -19 16 -107 21 -195 11 -170 1
-354 -25 -495 -41 -217 -26 -306 73 -445 44 -62 66 -83 167 -172 103 -90 216
-223 248 -293 47 -101 57 -207 37 -379 -16 -137 -40 -392 -55 -581 -21 -253
-68 -788 -101 -1130 -43 -464 -43 -486 19 -550 79 -83 216 -210 226 -210 23 0
31 46 41 232 6 106 13 204 16 217 3 13 9 108 14 210 6 102 14 251 20 331 13
194 13 1120 0 1495 -12 316 -29 442 -69 509 -22 37 -55 139 -71 216 -6 33 -10
162 -9 320 3 286 1 301 -58 455 -30 79 -70 146 -154 256 -71 95 -124 198 -146
287 -25 103 -22 283 6 412 25 116 48 154 79 132 9 -7 31 -21 47 -32 37 -24
150 -122 246 -212 70 -65 71 -68 76 -126 4 -44 0 -75 -15 -123 -49 -150 -48
-265 4 -370 13 -26 30 -78 38 -115 23 -112 35 -151 55 -176 27 -32 35 -21 78
103 l37 104 0 180 c0 144 -4 191 -18 235 -48 151 -50 167 -32 225 18 59 65
112 191 220 38 33 88 76 110 96 22 19 62 51 88 69 38 27 52 32 65 23 15 -9 17
-26 14 -121 -3 -137 -27 -249 -90 -437 -17 -49 -49 -146 -71 -215 -22 -69 -56
-170 -76 -225 -36 -103 -109 -324 -139 -429 -24 -80 -31 -228 -17 -344 12
-103 46 -408 62 -557 49 -469 64 -781 63 -1315 -2 -398 -11 -565 -55 -950 -5
-41 -11 -190 -15 -330 -6 -261 4 -449 27 -476 19 -23 45 -16 72 19 13 17 65
73 114 123 49 50 98 108 108 130 26 55 30 155 12 334 -9 85 -21 214 -27 285
-7 72 -21 218 -32 325 -44 437 -43 417 -24 552 49 330 36 590 -45 912 -11 45
-29 102 -39 128 -26 62 -27 168 -1 224 10 23 45 64 81 95 204 177 215 194 207
311 -3 51 -12 92 -26 118 -46 89 -52 298 -17 605 8 72 22 200 31 285 22 208
30 240 83 345 25 50 56 124 69 165 53 163 33 391 -53 615 -35 90 -42 189 -18
236 28 56 135 196 160 209 49 27 164 168 200 247 155 337 285 575 402 734 77
105 147 191 206 253 61 65 65 74 75 135 9 50 8 94 -3 186 -21 172 -32 205 -84
233 -63 35 -69 65 -51 275 8 95 14 228 14 297 0 122 -1 125 -22 128 -31 5 -90
-43 -115 -92 -87 -170 -114 -253 -144 -446 -27 -181 -99 -366 -197 -510 -37
-54 -214 -231 -266 -265 -20 -14 -47 -32 -61 -41 -14 -9 -37 -25 -52 -36 -46
-31 -243 -127 -314 -153 -132 -48 -194 -112 -214 -225 -11 -59 -34 -127 -66
-195 -18 -38 -67 -69 -94 -60 -44 14 -49 39 -48 230 1 129 -3 211 -16 290 -11
68 -19 181 -20 295 l-3 185 87 85 c216 211 496 462 539 484 15 8 56 20 91 26
179 33 232 52 347 126 87 57 177 186 247 357 16 39 101 171 142 220 32 38 30
61 -6 107 -16 21 -30 41 -30 45 0 4 -7 22 -16 41 -12 26 -15 49 -10 92 21 193
21 187 -12 239 -57 89 -64 93 -145 92 -53 0 -94 -8 -156 -30z"/>
<path d="M5470 6964 c-22 -14 -94 -101 -139 -168 -8 -11 -25 -32 -37 -46 -12
-14 -25 -34 -28 -46 -3 -11 -20 -43 -38 -70 -90 -141 -238 -492 -238 -566 0
-55 29 -94 186 -254 88 -89 258 -264 379 -390 121 -125 267 -276 325 -334 236
-236 328 -358 430 -565 54 -111 108 -257 145 -394 22 -81 30 -280 15 -369 -18
-110 -83 -235 -163 -315 -81 -80 -134 -117 -239 -166 -100 -46 -261 -111 -277
-111 -6 0 -51 -13 -101 -30 -49 -16 -128 -34 -175 -39 -137 -16 -139 -28 -16
-93 185 -98 322 -131 545 -130 208 0 366 40 530 134 123 70 158 96 244 181
147 144 266 355 316 557 9 36 32 127 51 204 45 177 58 403 31 526 -9 41 -23
111 -31 155 -58 338 -239 754 -483 1108 -23 34 -61 89 -83 122 -22 32 -43 62
-47 65 -4 3 -21 23 -38 45 -112 146 -139 181 -149 190 -6 6 -24 28 -40 50 -39
54 -65 81 -320 339 -121 122 -251 247 -290 278 -38 30 -79 65 -90 78 -31 35
-92 70 -122 70 -16 0 -39 -8 -53 -16z"/>
<path d="M1249 6303 c-56 -54 -108 -105 -115 -113 -8 -8 -55 -60 -105 -115
-50 -55 -109 -124 -132 -154 -22 -29 -62 -78 -89 -108 -27 -30 -65 -79 -83
-108 -19 -29 -38 -55 -43 -57 -5 -1 -20 -19 -33 -39 -23 -34 -124 -184 -162
-238 -9 -14 -23 -37 -30 -51 -6 -14 -31 -56 -53 -95 -163 -277 -274 -563 -335
-860 -15 -77 -33 -158 -40 -180 -6 -22 -13 -134 -16 -250 -5 -222 -2 -247 57
-500 54 -229 151 -420 296 -580 162 -180 341 -277 594 -325 164 -31 574 -41
670 -16 148 38 263 122 343 248 23 37 21 54 -5 62 -13 3 -131 6 -263 6 -270 0
-378 13 -502 59 -150 55 -173 70 -268 166 -97 99 -154 191 -189 310 -10 33
-23 71 -28 84 -5 14 -14 76 -20 138 -19 195 15 475 77 633 113 289 297 509
694 835 59 48 245 209 256 221 6 6 42 37 80 69 39 31 75 62 80 69 14 16 84 76
129 111 21 17 59 50 85 74 25 24 62 55 81 70 19 14 49 40 65 56 17 17 41 38
53 47 37 30 28 56 -45 126 -103 99 -198 159 -453 286 -129 65 -257 131 -285
147 -75 44 -128 69 -147 69 -10 0 -63 -44 -119 -97z"/>
<path d="M2826 3224 c-19 -18 -19 -52 -6 -344 6 -130 18 -258 34 -350 13 -80
27 -170 30 -200 7 -59 48 -292 71 -405 8 -38 17 -90 20 -115 7 -53 29 -98 39
-81 4 6 11 59 16 118 5 60 14 146 20 193 6 47 15 159 20 250 6 91 15 217 20
280 6 63 13 185 16 270 6 134 5 160 -10 188 -16 30 -133 152 -147 152 -3 0
-23 14 -44 30 -43 34 -57 37 -79 14z"/>
<path d="M4266 3079 c-61 -41 -103 -98 -111 -152 -4 -23 1 -96 9 -162 9 -66
20 -194 26 -285 6 -91 18 -244 26 -340 8 -96 21 -256 29 -355 8 -99 19 -232
24 -295 6 -63 15 -189 21 -280 10 -158 19 -196 39 -174 10 9 30 186 51 439 6
77 16 187 21 245 13 134 38 481 45 630 8 149 -17 454 -55 665 -16 89 -17 90
-46 93 -21 2 -45 -7 -79 -29z"/>
</g>
</svg>
